<svg width="286" height="136" viewBox="0 0 286 136" fill="none" xmlns="http://www.w3.org/2000/svg">
<circle cx="55.5" cy="80.5" r="51" stroke="#C4C4C4" stroke-opacity="0.17" stroke-width="9"/>
<circle cx="55.5" cy="82.5" r="44.5" fill="#FFA825"/>
<path d="M30 69.5L55.5642 97.294C56.3909 98.1928 57.8231 98.1474 58.5911 97.198L117 25" stroke="white" stroke-width="50" stroke-linecap="round"/>
<path d="M30 69.5L55.5642 97.294C56.3909 98.1928 57.8231 98.1474 58.5911 97.198L117 25" stroke="#FFA825" stroke-width="30" stroke-linecap="round"/>
<path fill-rule="evenodd" clip-rule="evenodd" d="M131.699 22.0104C131.031 18.7132 129.254 15.6202 126.434 13.3389C119.994 8.12845 110.549 9.12563 105.338 15.5662L56.4054 76.0513L41.0403 59.346C35.4321 53.2487 25.9429 52.8521 19.8456 58.4603C14.433 63.4387 13.5127 71.4753 17.2972 77.4828C16.2934 72.5088 17.8383 67.1466 21.8456 63.4608C27.943 57.8526 37.4322 58.2492 43.0403 64.3465L58.4055 81.0518L107.339 20.5666C112.549 14.1261 121.994 13.1289 128.434 18.3394C129.753 19.4062 130.844 20.6506 131.699 22.0104Z" fill="#FF9900"/>
<path d="M143.922 53.7109L134.641 82H127.164L139.844 47.875H144.602L143.922 53.7109ZM151.633 82L142.328 53.7109L141.578 47.875H146.383L159.133 82H151.633ZM151.211 69.2969V74.8047H133.188V69.2969H151.211ZM159.235 46H165.985V76.1875L165.305 82H159.235V46ZM182.04 69.0625V69.5547C182.04 71.4453 181.837 73.1797 181.43 74.7578C181.04 76.3359 180.43 77.7031 179.602 78.8594C178.774 80 177.743 80.8906 176.508 81.5312C175.29 82.1562 173.852 82.4688 172.196 82.4688C170.649 82.4688 169.305 82.1562 168.165 81.5312C167.04 80.9062 166.094 80.0234 165.329 78.8828C164.563 77.7422 163.946 76.4062 163.477 74.875C163.008 73.3438 162.657 71.6719 162.423 69.8594V68.7812C162.657 66.9688 163.008 65.2969 163.477 63.7656C163.946 62.2344 164.563 60.8984 165.329 59.7578C166.094 58.6172 167.04 57.7344 168.165 57.1094C169.29 56.4844 170.618 56.1719 172.149 56.1719C173.821 56.1719 175.274 56.4922 176.508 57.1328C177.758 57.7578 178.79 58.6484 179.602 59.8047C180.43 60.9453 181.04 62.3047 181.43 63.8828C181.837 65.4453 182.04 67.1719 182.04 69.0625ZM175.29 69.5547V69.0625C175.29 68.0312 175.212 67.0625 175.055 66.1562C174.915 65.2344 174.665 64.4297 174.305 63.7422C173.946 63.0391 173.454 62.4844 172.829 62.0781C172.219 61.6719 171.43 61.4688 170.462 61.4688C169.54 61.4688 168.758 61.625 168.118 61.9375C167.477 62.25 166.946 62.6875 166.524 63.25C166.118 63.8125 165.813 64.4844 165.61 65.2656C165.407 66.0312 165.282 66.875 165.235 67.7969V70.8672C165.282 72.1016 165.485 73.1953 165.844 74.1484C166.219 75.0859 166.782 75.8281 167.532 76.375C168.298 76.9062 169.29 77.1719 170.508 77.1719C171.462 77.1719 172.251 76.9844 172.876 76.6094C173.501 76.2344 173.985 75.7031 174.329 75.0156C174.688 74.3281 174.938 73.5234 175.079 72.6016C175.219 71.6641 175.29 70.6484 175.29 69.5547ZM197.306 74.9922C197.306 74.5078 197.165 74.0703 196.884 73.6797C196.603 73.2891 196.079 72.9297 195.314 72.6016C194.564 72.2578 193.478 71.9453 192.056 71.6641C190.775 71.3828 189.579 71.0312 188.47 70.6094C187.376 70.1719 186.423 69.6484 185.611 69.0391C184.814 68.4297 184.189 67.7109 183.736 66.8828C183.283 66.0391 183.056 65.0781 183.056 64C183.056 62.9375 183.283 61.9375 183.736 61C184.204 60.0625 184.868 59.2344 185.728 58.5156C186.603 57.7812 187.665 57.2109 188.915 56.8047C190.181 56.3828 191.603 56.1719 193.181 56.1719C195.384 56.1719 197.275 56.5234 198.853 57.2266C200.447 57.9297 201.665 58.8984 202.509 60.1328C203.368 61.3516 203.798 62.7422 203.798 64.3047H197.048C197.048 63.6484 196.908 63.0625 196.626 62.5469C196.361 62.0156 195.939 61.6016 195.361 61.3047C194.798 60.9922 194.064 60.8359 193.158 60.8359C192.408 60.8359 191.759 60.9688 191.212 61.2344C190.665 61.4844 190.243 61.8281 189.947 62.2656C189.665 62.6875 189.525 63.1562 189.525 63.6719C189.525 64.0625 189.603 64.4141 189.759 64.7266C189.931 65.0234 190.204 65.2969 190.579 65.5469C190.954 65.7969 191.439 66.0312 192.033 66.25C192.642 66.4531 193.392 66.6406 194.283 66.8125C196.111 67.1875 197.743 67.6797 199.181 68.2891C200.618 68.8828 201.759 69.6953 202.603 70.7266C203.447 71.7422 203.868 73.0781 203.868 74.7344C203.868 75.8594 203.618 76.8906 203.118 77.8281C202.618 78.7656 201.9 79.5859 200.962 80.2891C200.025 80.9766 198.9 81.5156 197.587 81.9062C196.29 82.2812 194.829 82.4688 193.204 82.4688C190.845 82.4688 188.845 82.0469 187.204 81.2031C185.579 80.3594 184.345 79.2891 183.501 77.9922C182.673 76.6797 182.259 75.3359 182.259 73.9609H188.658C188.689 74.8828 188.923 75.625 189.361 76.1875C189.814 76.75 190.384 77.1562 191.072 77.4062C191.775 77.6562 192.533 77.7812 193.345 77.7812C194.22 77.7812 194.947 77.6641 195.525 77.4297C196.103 77.1797 196.54 76.8516 196.837 76.4453C197.15 76.0234 197.306 75.5391 197.306 74.9922ZM217.283 82.4688C215.314 82.4688 213.549 82.1562 211.986 81.5312C210.424 80.8906 209.096 80.0078 208.002 78.8828C206.924 77.7578 206.096 76.4531 205.518 74.9688C204.939 73.4688 204.65 71.875 204.65 70.1875V69.25C204.65 67.3281 204.924 65.5703 205.471 63.9766C206.018 62.3828 206.799 61 207.814 59.8281C208.846 58.6562 210.096 57.7578 211.564 57.1328C213.033 56.4922 214.689 56.1719 216.533 56.1719C218.33 56.1719 219.924 56.4688 221.314 57.0625C222.705 57.6562 223.869 58.5 224.807 59.5938C225.76 60.6875 226.478 62 226.963 63.5312C227.447 65.0469 227.689 66.7344 227.689 68.5938V71.4062H207.533V66.9062H221.057V66.3906C221.057 65.4531 220.885 64.6172 220.541 63.8828C220.213 63.1328 219.713 62.5391 219.041 62.1016C218.369 61.6641 217.51 61.4453 216.463 61.4453C215.572 61.4453 214.807 61.6406 214.166 62.0312C213.525 62.4219 213.002 62.9688 212.596 63.6719C212.205 64.375 211.908 65.2031 211.705 66.1562C211.518 67.0938 211.424 68.125 211.424 69.25V70.1875C211.424 71.2031 211.564 72.1406 211.846 73C212.143 73.8594 212.557 74.6016 213.088 75.2266C213.635 75.8516 214.291 76.3359 215.057 76.6797C215.838 77.0234 216.721 77.1953 217.705 77.1953C218.924 77.1953 220.057 76.9609 221.103 76.4922C222.166 76.0078 223.08 75.2812 223.846 74.3125L227.127 77.875C226.596 78.6406 225.869 79.375 224.947 80.0781C224.041 80.7812 222.947 81.3594 221.666 81.8125C220.385 82.25 218.924 82.4688 217.283 82.4688ZM235.503 62.0547V82H228.753V56.6406H235.081L235.503 62.0547ZM234.518 68.4297H232.69C232.69 66.5547 232.932 64.8672 233.417 63.3672C233.901 61.8516 234.581 60.5625 235.456 59.5C236.331 58.4219 237.37 57.6016 238.573 57.0391C239.792 56.4609 241.151 56.1719 242.651 56.1719C243.838 56.1719 244.924 56.3438 245.909 56.6875C246.893 57.0312 247.737 57.5781 248.44 58.3281C249.159 59.0781 249.706 60.0703 250.081 61.3047C250.471 62.5391 250.667 64.0469 250.667 65.8281V82H243.87V65.8047C243.87 64.6797 243.713 63.8047 243.401 63.1797C243.088 62.5547 242.628 62.1172 242.018 61.8672C241.424 61.6016 240.69 61.4688 239.815 61.4688C238.909 61.4688 238.12 61.6484 237.448 62.0078C236.792 62.3672 236.245 62.8672 235.807 63.5078C235.385 64.1328 235.065 64.8672 234.846 65.7109C234.628 66.5547 234.518 67.4609 234.518 68.4297ZM266.87 74.9922C266.87 74.5078 266.73 74.0703 266.448 73.6797C266.167 73.2891 265.644 72.9297 264.878 72.6016C264.128 72.2578 263.042 71.9453 261.62 71.6641C260.339 71.3828 259.144 71.0312 258.034 70.6094C256.941 70.1719 255.988 69.6484 255.175 69.0391C254.378 68.4297 253.753 67.7109 253.3 66.8828C252.847 66.0391 252.62 65.0781 252.62 64C252.62 62.9375 252.847 61.9375 253.3 61C253.769 60.0625 254.433 59.2344 255.292 58.5156C256.167 57.7812 257.23 57.2109 258.48 56.8047C259.745 56.3828 261.167 56.1719 262.745 56.1719C264.948 56.1719 266.839 56.5234 268.417 57.2266C270.011 57.9297 271.23 58.8984 272.073 60.1328C272.933 61.3516 273.363 62.7422 273.363 64.3047H266.613C266.613 63.6484 266.472 63.0625 266.191 62.5469C265.925 62.0156 265.503 61.6016 264.925 61.3047C264.363 60.9922 263.628 60.8359 262.722 60.8359C261.972 60.8359 261.323 60.9688 260.777 61.2344C260.23 61.4844 259.808 61.8281 259.511 62.2656C259.23 62.6875 259.089 63.1562 259.089 63.6719C259.089 64.0625 259.167 64.4141 259.323 64.7266C259.495 65.0234 259.769 65.2969 260.144 65.5469C260.519 65.7969 261.003 66.0312 261.597 66.25C262.206 66.4531 262.956 66.6406 263.847 66.8125C265.675 67.1875 267.308 67.6797 268.745 68.2891C270.183 68.8828 271.323 69.6953 272.167 70.7266C273.011 71.7422 273.433 73.0781 273.433 74.7344C273.433 75.8594 273.183 76.8906 272.683 77.8281C272.183 78.7656 271.464 79.5859 270.527 80.2891C269.589 80.9766 268.464 81.5156 267.152 81.9062C265.855 82.2812 264.394 82.4688 262.769 82.4688C260.409 82.4688 258.409 82.0469 256.769 81.2031C255.144 80.3594 253.909 79.2891 253.066 77.9922C252.238 76.6797 251.823 75.3359 251.823 73.9609H258.222C258.253 74.8828 258.488 75.625 258.925 76.1875C259.378 76.75 259.948 77.1562 260.636 77.4062C261.339 77.6562 262.097 77.7812 262.909 77.7812C263.784 77.7812 264.511 77.6641 265.089 77.4297C265.667 77.1797 266.105 76.8516 266.402 76.4453C266.714 76.0234 266.87 75.5391 266.87 74.9922ZM282.301 56.6406V82H275.527V56.6406H282.301ZM275.105 50.0312C275.105 49.0469 275.449 48.2344 276.137 47.5938C276.824 46.9531 277.746 46.6328 278.902 46.6328C280.043 46.6328 280.957 46.9531 281.644 47.5938C282.348 48.2344 282.699 49.0469 282.699 50.0312C282.699 51.0156 282.348 51.8281 281.644 52.4688C280.957 53.1094 280.043 53.4297 278.902 53.4297C277.746 53.4297 276.824 53.1094 276.137 52.4688C275.449 51.8281 275.105 51.0156 275.105 50.0312Z" fill="#FFA825"/>
<path d="M138.074 106.688C138.074 106.289 138.012 105.938 137.887 105.633C137.77 105.32 137.559 105.039 137.254 104.789C136.957 104.539 136.543 104.301 136.012 104.074C135.488 103.848 134.824 103.617 134.02 103.383C133.176 103.133 132.414 102.855 131.734 102.551C131.055 102.238 130.473 101.883 129.988 101.484C129.504 101.086 129.133 100.629 128.875 100.113C128.617 99.5977 128.488 99.0078 128.488 98.3438C128.488 97.6797 128.625 97.0664 128.898 96.5039C129.172 95.9414 129.562 95.4531 130.07 95.0391C130.586 94.6172 131.199 94.2891 131.91 94.0547C132.621 93.8203 133.414 93.7031 134.289 93.7031C135.57 93.7031 136.656 93.9492 137.547 94.4414C138.445 94.9258 139.129 95.5625 139.598 96.3516C140.066 97.1328 140.301 97.9688 140.301 98.8594H138.051C138.051 98.2188 137.914 97.6523 137.641 97.1602C137.367 96.6602 136.953 96.2695 136.398 95.9883C135.844 95.6992 135.141 95.5547 134.289 95.5547C133.484 95.5547 132.82 95.6758 132.297 95.918C131.773 96.1602 131.383 96.4883 131.125 96.9023C130.875 97.3164 130.75 97.7891 130.75 98.3203C130.75 98.6797 130.824 99.0078 130.973 99.3047C131.129 99.5938 131.367 99.8633 131.688 100.113C132.016 100.363 132.43 100.594 132.93 100.805C133.438 101.016 134.043 101.219 134.746 101.414C135.715 101.688 136.551 101.992 137.254 102.328C137.957 102.664 138.535 103.043 138.988 103.465C139.449 103.879 139.789 104.352 140.008 104.883C140.234 105.406 140.348 106 140.348 106.664C140.348 107.359 140.207 107.988 139.926 108.551C139.645 109.113 139.242 109.594 138.719 109.992C138.195 110.391 137.566 110.699 136.832 110.918C136.105 111.129 135.293 111.234 134.395 111.234C133.605 111.234 132.828 111.125 132.062 110.906C131.305 110.688 130.613 110.359 129.988 109.922C129.371 109.484 128.875 108.945 128.5 108.305C128.133 107.656 127.949 106.906 127.949 106.055H130.199C130.199 106.641 130.312 107.145 130.539 107.566C130.766 107.98 131.074 108.324 131.465 108.598C131.863 108.871 132.312 109.074 132.812 109.207C133.32 109.332 133.848 109.395 134.395 109.395C135.184 109.395 135.852 109.285 136.398 109.066C136.945 108.848 137.359 108.535 137.641 108.129C137.93 107.723 138.074 107.242 138.074 106.688ZM148.416 93.9375V111H146.155V93.9375H148.416ZM164.383 106.688C164.383 106.289 164.321 105.938 164.196 105.633C164.079 105.32 163.868 105.039 163.563 104.789C163.266 104.539 162.852 104.301 162.321 104.074C161.797 103.848 161.133 103.617 160.329 103.383C159.485 103.133 158.723 102.855 158.043 102.551C157.364 102.238 156.782 101.883 156.297 101.484C155.813 101.086 155.442 100.629 155.184 100.113C154.926 99.5977 154.797 99.0078 154.797 98.3438C154.797 97.6797 154.934 97.0664 155.208 96.5039C155.481 95.9414 155.872 95.4531 156.379 95.0391C156.895 94.6172 157.508 94.2891 158.219 94.0547C158.93 93.8203 159.723 93.7031 160.598 93.7031C161.879 93.7031 162.965 93.9492 163.856 94.4414C164.754 94.9258 165.438 95.5625 165.907 96.3516C166.375 97.1328 166.61 97.9688 166.61 98.8594H164.36C164.36 98.2188 164.223 97.6523 163.95 97.1602C163.676 96.6602 163.262 96.2695 162.708 95.9883C162.153 95.6992 161.45 95.5547 160.598 95.5547C159.793 95.5547 159.129 95.6758 158.606 95.918C158.083 96.1602 157.692 96.4883 157.434 96.9023C157.184 97.3164 157.059 97.7891 157.059 98.3203C157.059 98.6797 157.133 99.0078 157.282 99.3047C157.438 99.5938 157.676 99.8633 157.997 100.113C158.325 100.363 158.739 100.594 159.239 100.805C159.747 101.016 160.352 101.219 161.055 101.414C162.024 101.688 162.86 101.992 163.563 102.328C164.266 102.664 164.844 103.043 165.297 103.465C165.758 103.879 166.098 104.352 166.317 104.883C166.543 105.406 166.657 106 166.657 106.664C166.657 107.359 166.516 107.988 166.235 108.551C165.954 109.113 165.551 109.594 165.028 109.992C164.504 110.391 163.875 110.699 163.141 110.918C162.415 111.129 161.602 111.234 160.704 111.234C159.915 111.234 159.137 111.125 158.372 110.906C157.614 110.688 156.922 110.359 156.297 109.922C155.68 109.484 155.184 108.945 154.809 108.305C154.442 107.656 154.258 106.906 154.258 106.055H156.508C156.508 106.641 156.622 107.145 156.848 107.566C157.075 107.98 157.383 108.324 157.774 108.598C158.172 108.871 158.622 109.074 159.122 109.207C159.629 109.332 160.157 109.395 160.704 109.395C161.493 109.395 162.161 109.285 162.708 109.066C163.254 108.848 163.668 108.535 163.95 108.129C164.239 107.723 164.383 107.242 164.383 106.688ZM176.788 105.844L180.175 93.9375H181.815L180.866 98.5664L177.221 111H175.592L176.788 105.844ZM173.284 93.9375L175.979 105.609L176.788 111H175.171L171.034 93.9375H173.284ZM186.198 105.598L188.835 93.9375H191.096L186.971 111H185.354L186.198 105.598ZM182.061 93.9375L185.354 105.844L186.55 111H184.921L181.405 98.5664L180.444 93.9375H182.061ZM202.165 95.4492L196.517 111H194.208L200.712 93.9375H202.2L202.165 95.4492ZM206.899 111L201.239 95.4492L201.204 93.9375H202.692L209.22 111H206.899ZM206.606 104.684V106.535H197.02V104.684H206.606Z" fill="#FFA825"/>
</svg>
