<svg width="85" height="42" viewBox="0 0 85 42" fill="none" xmlns="http://www.w3.org/2000/svg">
<path d="M29.965 24.7214C29.965 32.0858 23.995 38.0558 16.6306 38.0558C9.26617 38.0558 3.29614 32.0858 3.29614 24.7214C3.29614 17.357 9.26617 11.387 16.6306 11.387C23.995 11.387 29.965 17.357 29.965 24.7214Z" fill="white"/>
<path fill-rule="evenodd" clip-rule="evenodd" d="M16.6306 38.6551C24.326 38.6551 30.5643 32.4168 30.5643 24.7214C30.5643 17.026 24.326 10.7877 16.6306 10.7877C8.9352 10.7877 2.69685 17.026 2.69685 24.7214C2.69685 32.4168 8.9352 38.6551 16.6306 38.6551ZM16.6306 41.352C25.8154 41.352 33.2612 33.9062 33.2612 24.7214C33.2612 15.5366 25.8154 8.09082 16.6306 8.09082C7.44577 8.09082 0 15.5366 0 24.7214C0 33.9062 7.44577 41.352 16.6306 41.352Z" fill="#C4C4C4" fill-opacity="0.17"/>
<path fill-rule="evenodd" clip-rule="evenodd" d="M39.7708 1.6675C42.9873 4.26969 43.4853 8.98667 40.8831 12.2032L23.3809 33.8373C20.2738 37.6779 14.4804 37.8617 11.1362 34.2258L3.47586 25.8973C0.675041 22.8522 0.873083 18.1131 3.9182 15.3123C6.96331 12.5115 11.7024 12.7095 14.5032 15.7546L16.7565 18.2044L29.2351 2.77983C31.8373 -0.436677 36.5543 -0.934686 39.7708 1.6675Z" fill="#FFA825"/>
<path fill-rule="evenodd" clip-rule="evenodd" d="M37.8861 3.99711C39.816 5.55842 40.1148 8.38861 38.5535 10.3185L21.0513 31.9527C19.095 34.3708 15.4473 34.4865 13.3417 32.1972L5.68133 23.8687C4.00084 22.0417 4.11966 19.1982 5.94673 17.5178C7.7738 15.8373 10.6172 15.9561 12.2977 17.7832L16.9019 22.7889L31.5647 4.66451C33.126 2.73461 35.9562 2.4358 37.8861 3.99711Z" fill="white"/>
<path fill-rule="evenodd" clip-rule="evenodd" d="M39.4638 6.29602C39.2634 5.30802 38.7311 4.3812 37.8861 3.69761C35.9562 2.1363 33.126 2.43511 31.5647 4.36501L16.9019 22.4894L12.2977 17.4837C10.6172 15.6566 7.7738 15.5378 5.94673 17.2183C4.32484 18.71 4.04907 21.1182 5.18312 22.9184C4.88233 21.4279 5.34525 19.8211 6.54605 18.7167C8.37312 17.0362 11.2166 17.155 12.897 18.9821L17.5012 23.9878L32.164 5.86341C33.7253 3.9335 36.5555 3.6347 38.4854 5.19601C38.8806 5.51569 39.2073 5.88857 39.4638 6.29602Z" fill="#E8E8E8"/>
<path d="M43.3212 16.0512L40.5338 24.3673H38.2883L42.0964 14.3356H43.5253L43.3212 16.0512ZM45.637 24.3673L42.8425 16.0512L42.6173 14.3356H44.0603L47.8895 24.3673H45.637ZM45.5103 20.633V22.2521H40.0973V20.633H45.5103Z" fill="white"/>
<path d="M47.9202 13.7844H49.9474V22.6586L49.7433 24.3673H47.9202V13.7844ZM54.7691 20.5641V20.7088C54.7691 21.2646 54.7081 21.7744 54.5861 22.2384C54.4688 22.7023 54.2857 23.1042 54.037 23.4441C53.7883 23.7794 53.4786 24.0412 53.1079 24.2295C52.7419 24.4133 52.3101 24.5051 51.8127 24.5051C51.3481 24.5051 50.9446 24.4133 50.602 24.2295C50.2641 24.0458 49.9802 23.7863 49.7503 23.451C49.5204 23.1157 49.335 22.723 49.1942 22.2728C49.0534 21.8227 48.9479 21.3312 48.8775 20.7984V20.4814C48.9479 19.9486 49.0534 19.4571 49.1942 19.007C49.335 18.5568 49.5204 18.1641 49.7503 17.8288C49.9802 17.4935 50.2641 17.234 50.602 17.0502C50.9399 16.8665 51.3388 16.7747 51.7986 16.7747C52.3008 16.7747 52.7372 16.8688 53.1079 17.0571C53.4833 17.2409 53.793 17.5027 54.037 17.8426C54.2857 18.1779 54.4688 18.5775 54.5861 19.0414C54.7081 19.5008 54.7691 20.0083 54.7691 20.5641ZM52.7419 20.7088V20.5641C52.7419 20.261 52.7184 19.9762 52.6715 19.7098C52.6292 19.4388 52.5542 19.2022 52.4462 19.0001C52.3383 18.7934 52.1905 18.6303 52.0028 18.5109C51.8198 18.3915 51.5828 18.3318 51.2918 18.3318C51.015 18.3318 50.7803 18.3777 50.5879 18.4696C50.3955 18.5614 50.236 18.69 50.1093 18.8554C49.9873 19.0208 49.8958 19.2183 49.8348 19.4479C49.7738 19.673 49.7362 19.921 49.7221 20.1921V21.0946C49.7362 21.4575 49.7972 21.779 49.9052 22.0592C50.0178 22.3348 50.1867 22.553 50.412 22.7138C50.6419 22.8699 50.9399 22.948 51.3059 22.948C51.5922 22.948 51.8291 22.8929 52.0169 22.7827C52.2046 22.6724 52.35 22.5163 52.4533 22.3141C52.5612 22.112 52.6363 21.8755 52.6785 21.6045C52.7207 21.3289 52.7419 21.0303 52.7419 20.7088Z" fill="white"/>
<path d="M59.354 22.3073C59.354 22.1649 59.3118 22.0363 59.2273 21.9214C59.1428 21.8066 58.9856 21.7009 58.7557 21.6045C58.5304 21.5034 58.2043 21.4116 57.7773 21.3289C57.3925 21.2462 57.0335 21.1429 56.7003 21.0188C56.3718 20.8902 56.0856 20.7364 55.8415 20.5572C55.6022 20.3781 55.4145 20.1668 55.2784 19.9233C55.1423 19.6753 55.0743 19.3928 55.0743 19.0759C55.0743 18.7635 55.1423 18.4696 55.2784 18.194C55.4192 17.9184 55.6186 17.6749 55.8767 17.4636C56.1395 17.2478 56.4586 17.0801 56.834 16.9607C57.2141 16.8367 57.6412 16.7747 58.1151 16.7747C58.7768 16.7747 59.3446 16.878 59.8186 17.0847C60.2972 17.2914 60.6632 17.5762 60.9166 17.939C61.1747 18.2973 61.3038 18.7061 61.3038 19.1655H59.2766C59.2766 18.9725 59.2343 18.8003 59.1499 18.6487C59.0701 18.4925 58.9434 18.3708 58.7698 18.2835C58.6008 18.1917 58.3803 18.1457 58.1081 18.1457C57.8828 18.1457 57.6881 18.1848 57.5239 18.2629C57.3596 18.3364 57.2329 18.4374 57.1438 18.566C57.0593 18.69 57.0171 18.8278 57.0171 18.9794C57.0171 19.0943 57.0405 19.1976 57.0874 19.2895C57.1391 19.3767 57.2212 19.4571 57.3338 19.5306C57.4464 19.6041 57.5919 19.673 57.7702 19.7373C57.9532 19.797 58.1785 19.8521 58.446 19.9027C58.995 20.0129 59.4854 20.1576 59.9171 20.3367C60.3488 20.5113 60.6914 20.7501 60.9448 21.0533C61.1982 21.3519 61.3249 21.7446 61.3249 22.2315C61.3249 22.5622 61.2498 22.8653 61.0997 23.1409C60.9495 23.4165 60.7336 23.6577 60.4521 23.8644C60.1705 24.0665 59.8326 24.225 59.4385 24.3398C59.049 24.45 58.6102 24.5051 58.1222 24.5051C57.4136 24.5051 56.8129 24.3811 56.3202 24.1331C55.8322 23.8851 55.4614 23.5704 55.208 23.1892C54.9593 22.8033 54.835 22.4083 54.835 22.0041H56.7566C56.766 22.2751 56.8364 22.4933 56.9678 22.6586C57.1039 22.824 57.2751 22.9434 57.4816 23.0169C57.6928 23.0904 57.9204 23.1272 58.1644 23.1272C58.4272 23.1272 58.6454 23.0927 58.819 23.0238C58.9927 22.9503 59.124 22.8539 59.2132 22.7344C59.3071 22.6104 59.354 22.468 59.354 22.3073Z" fill="white"/>
<path d="M65.3537 24.5051C64.7624 24.5051 64.2322 24.4133 63.7629 24.2295C63.2937 24.0412 62.8948 23.7817 62.5663 23.451C62.2425 23.1203 61.9938 22.7367 61.8202 22.3004C61.6465 21.8594 61.5597 21.3909 61.5597 20.8948V20.6192C61.5597 20.0543 61.6418 19.5375 61.8061 19.069C61.9703 18.6005 62.205 18.194 62.51 17.8495C62.8197 17.505 63.1951 17.2409 63.6362 17.0571C64.0773 16.8688 64.5747 16.7747 65.1285 16.7747C65.6681 16.7747 66.1468 16.8619 66.5644 17.0365C66.9821 17.211 67.3317 17.459 67.6132 17.7806C67.8995 18.1021 68.1153 18.4879 68.2608 18.9381C68.4063 19.3836 68.479 19.8797 68.479 20.4263V21.2531H62.4255V19.9302H66.487V19.7787C66.487 19.5031 66.4354 19.2573 66.3321 19.0414C66.2336 18.821 66.0834 18.6464 65.8816 18.5178C65.6799 18.3892 65.4218 18.3249 65.1074 18.3249C64.8399 18.3249 64.6099 18.3823 64.4175 18.4971C64.2251 18.612 64.0679 18.7727 63.9459 18.9794C63.8286 19.1861 63.7395 19.4296 63.6784 19.7098C63.6221 19.9854 63.594 20.2885 63.594 20.6192V20.8948C63.594 21.1934 63.6362 21.469 63.7207 21.7216C63.8098 21.9742 63.9342 22.1924 64.0937 22.3762C64.258 22.5599 64.4551 22.7023 64.685 22.8033C64.9197 22.9044 65.1848 22.9549 65.4804 22.9549C65.8465 22.9549 66.1867 22.886 66.5011 22.7482C66.8202 22.6058 67.0947 22.3922 67.3246 22.1075L68.3101 23.1547C68.1505 23.3798 67.9323 23.5957 67.6555 23.8024C67.3833 24.0091 67.0548 24.179 66.67 24.3122C66.2852 24.4408 65.8465 24.5051 65.3537 24.5051Z" fill="white"/>
<path d="M70.8255 18.504V24.3673H68.7983V16.9124H70.6988L70.8255 18.504ZM70.5299 20.3781H69.9809C69.9809 19.8269 70.0536 19.3308 70.1991 18.8899C70.3445 18.4443 70.5487 18.0654 70.8115 17.753C71.0742 17.4361 71.3863 17.1949 71.7476 17.0296C72.1137 16.8596 72.5219 16.7747 72.9724 16.7747C73.3291 16.7747 73.6552 16.8252 73.9508 16.9262C74.2465 17.0273 74.4999 17.188 74.711 17.4085C74.9269 17.629 75.0911 17.9207 75.2038 18.2835C75.3211 18.6464 75.3797 19.0897 75.3797 19.6133V24.3673H73.3384V19.6064C73.3384 19.2757 73.2915 19.0185 73.1977 18.8347C73.1038 18.651 72.9654 18.5224 72.7824 18.4489C72.604 18.3708 72.3835 18.3318 72.1207 18.3318C71.8485 18.3318 71.6116 18.3846 71.4098 18.4902C71.2127 18.5959 71.0484 18.7429 70.917 18.9312C70.7903 19.1149 70.6941 19.3308 70.6284 19.5788C70.5627 19.8269 70.5299 20.0933 70.5299 20.3781Z" fill="white"/>
<path d="M80.2462 22.3073C80.2462 22.1649 80.204 22.0363 80.1195 21.9214C80.035 21.8066 79.8778 21.7009 79.6479 21.6045C79.4226 21.5034 79.0965 21.4116 78.6695 21.3289C78.2847 21.2462 77.9257 21.1429 77.5925 21.0188C77.264 20.8902 76.9778 20.7364 76.7338 20.5572C76.4944 20.3781 76.3067 20.1668 76.1706 19.9233C76.0346 19.6753 75.9665 19.3928 75.9665 19.0759C75.9665 18.7635 76.0346 18.4696 76.1706 18.194C76.3114 17.9184 76.5109 17.6749 76.769 17.4636C77.0317 17.2478 77.3508 17.0801 77.7263 16.9607C78.1064 16.8367 78.5334 16.7747 79.0073 16.7747C79.669 16.7747 80.2368 16.878 80.7108 17.0847C81.1894 17.2914 81.5555 17.5762 81.8089 17.939C82.067 18.2973 82.196 18.7061 82.196 19.1655H80.1688C80.1688 18.9725 80.1265 18.8003 80.0421 18.6487C79.9623 18.4925 79.8356 18.3708 79.662 18.2835C79.493 18.1917 79.2725 18.1457 79.0003 18.1457C78.7751 18.1457 78.5803 18.1848 78.4161 18.2629C78.2518 18.3364 78.1251 18.4374 78.036 18.566C77.9515 18.69 77.9093 18.8278 77.9093 18.9794C77.9093 19.0943 77.9327 19.1976 77.9797 19.2895C78.0313 19.3767 78.1134 19.4571 78.226 19.5306C78.3386 19.6041 78.4841 19.673 78.6624 19.7373C78.8455 19.797 79.0707 19.8521 79.3382 19.9027C79.8872 20.0129 80.3776 20.1576 80.8093 20.3367C81.241 20.5113 81.5836 20.7501 81.837 21.0533C82.0904 21.3519 82.2171 21.7446 82.2171 22.2315C82.2171 22.5622 82.142 22.8653 81.9919 23.1409C81.8417 23.4165 81.6258 23.6577 81.3443 23.8644C81.0627 24.0665 80.7249 24.225 80.3307 24.3398C79.9412 24.45 79.5024 24.5051 79.0144 24.5051C78.3058 24.5051 77.7051 24.3811 77.2124 24.1331C76.7244 23.8851 76.3537 23.5704 76.1003 23.1892C75.8515 22.8033 75.7272 22.4083 75.7272 22.0041H77.6488C77.6582 22.2751 77.7286 22.4933 77.86 22.6586C77.9961 22.824 78.1674 22.9434 78.3738 23.0169C78.585 23.0904 78.8126 23.1272 79.0566 23.1272C79.3194 23.1272 79.5376 23.0927 79.7112 23.0238C79.8849 22.9503 80.0163 22.8539 80.1054 22.7344C80.1993 22.6104 80.2462 22.468 80.2462 22.3073Z" fill="white"/>
<path d="M84.8804 16.9124V24.3673H82.8461V16.9124H84.8804ZM82.7194 14.9695C82.7194 14.6801 82.8227 14.4413 83.0291 14.2529C83.2356 14.0646 83.5125 13.9705 83.8597 13.9705C84.2023 13.9705 84.4768 14.0646 84.6833 14.2529C84.8945 14.4413 85 14.6801 85 14.9695C85 15.2589 84.8945 15.4977 84.6833 15.686C84.4768 15.8744 84.2023 15.9685 83.8597 15.9685C83.5125 15.9685 83.2356 15.8744 83.0291 15.686C82.8227 15.4977 82.7194 15.2589 82.7194 14.9695Z" fill="white"/>
<path d="M41.3412 32.3041C41.3412 32.1822 41.3224 32.0747 41.2847 31.9816C41.2493 31.886 41.1857 31.8 41.0939 31.7236C41.0043 31.6472 40.8795 31.5743 40.7193 31.505C40.5615 31.4357 40.3613 31.3653 40.1186 31.2936C39.8642 31.2172 39.6346 31.1324 39.4296 31.0392C39.2247 30.9437 39.0492 30.835 38.9031 30.7132C38.7571 30.5913 38.6452 30.4516 38.5675 30.2939C38.4897 30.1363 38.4509 29.9559 38.4509 29.7529C38.4509 29.5498 38.4921 29.3623 38.5745 29.1903C38.657 29.0183 38.7748 28.869 38.9279 28.7424C39.0833 28.6134 39.2683 28.5131 39.4826 28.4414C39.697 28.3698 39.9361 28.334 40.1999 28.334C40.5862 28.334 40.9137 28.4092 41.1822 28.5597C41.4531 28.7078 41.6592 28.9025 41.8005 29.1437C41.9419 29.3826 42.0125 29.6382 42.0125 29.9105H41.3341C41.3341 29.7147 41.2929 29.5415 41.2105 29.391C41.128 29.2381 41.0032 29.1187 40.8359 29.0327C40.6687 28.9443 40.4567 28.9001 40.1999 28.9001C39.9573 28.9001 39.7571 28.9371 39.5992 29.0112C39.4414 29.0852 39.3236 29.1855 39.2459 29.3121C39.1705 29.4388 39.1328 29.5833 39.1328 29.7457C39.1328 29.8556 39.1552 29.9559 39.2 30.0467C39.2471 30.1351 39.3189 30.2175 39.4155 30.2939C39.5144 30.3704 39.6393 30.4408 39.79 30.5053C39.9431 30.5698 40.1257 30.6319 40.3377 30.6917C40.6298 30.7753 40.8819 30.8684 41.0939 30.9711C41.3059 31.0739 41.4802 31.1897 41.6168 31.3187C41.7558 31.4453 41.8583 31.5898 41.9242 31.7523C41.9925 31.9123 42.0267 32.0938 42.0267 32.2969C42.0267 32.5095 41.9843 32.7018 41.8995 32.8738C41.8147 33.0458 41.6934 33.1927 41.5355 33.3145C41.3777 33.4363 41.1881 33.5307 40.9667 33.5976C40.7476 33.6621 40.5026 33.6943 40.2317 33.6943C39.9938 33.6943 39.7594 33.6609 39.5286 33.594C39.3001 33.5271 39.0916 33.4268 38.9031 33.293C38.7171 33.1592 38.5675 32.9944 38.4544 32.7985C38.3437 32.6003 38.2883 32.3709 38.2883 32.1106H38.9667C38.9667 32.2897 39.0009 32.4438 39.0692 32.5728C39.1375 32.6994 39.2306 32.8045 39.3484 32.8881C39.4685 32.9717 39.6039 33.0338 39.7547 33.0744C39.9078 33.1127 40.0668 33.1318 40.2317 33.1318C40.4696 33.1318 40.671 33.0983 40.8359 33.0314C41.0008 32.9646 41.1257 32.869 41.2105 32.7448C41.2976 32.6206 41.3412 32.4737 41.3412 32.3041Z" fill="white"/>
<path d="M44.4595 28.4056V33.6227H43.7776V28.4056H44.4595Z" fill="white"/>
<path d="M49.2739 32.3041C49.2739 32.1822 49.255 32.0747 49.2173 31.9816C49.182 31.886 49.1184 31.8 49.0265 31.7236C48.937 31.6472 48.8122 31.5743 48.652 31.505C48.4941 31.4357 48.2939 31.3653 48.0513 31.2936C47.7969 31.2172 47.5672 31.1324 47.3623 31.0392C47.1573 30.9437 46.9818 30.835 46.8358 30.7132C46.6898 30.5913 46.5779 30.4516 46.5001 30.2939C46.4224 30.1363 46.3835 29.9559 46.3835 29.7529C46.3835 29.5498 46.4247 29.3623 46.5072 29.1903C46.5896 29.0183 46.7074 28.869 46.8605 28.7424C47.016 28.6134 47.2009 28.5131 47.4153 28.4414C47.6296 28.3698 47.8687 28.334 48.1326 28.334C48.5189 28.334 48.8463 28.4092 49.1149 28.5597C49.3857 28.7078 49.5919 28.9025 49.7332 29.1437C49.8745 29.3826 49.9452 29.6382 49.9452 29.9105H49.2668C49.2668 29.7147 49.2256 29.5415 49.1431 29.391C49.0607 29.2381 48.9358 29.1187 48.7686 29.0327C48.6013 28.9443 48.3893 28.9001 48.1326 28.9001C47.8899 28.9001 47.6897 28.9371 47.5319 29.0112C47.3741 29.0852 47.2563 29.1855 47.1785 29.3121C47.1032 29.4388 47.0655 29.5833 47.0655 29.7457C47.0655 29.8556 47.0878 29.9559 47.1326 30.0467C47.1797 30.1351 47.2516 30.2175 47.3481 30.2939C47.4471 30.3704 47.5719 30.4408 47.7227 30.5053C47.8758 30.5698 48.0584 30.6319 48.2704 30.6917C48.5625 30.7753 48.8145 30.8684 49.0265 30.9711C49.2385 31.0739 49.4128 31.1897 49.5495 31.3187C49.6884 31.4453 49.7909 31.5898 49.8569 31.7523C49.9252 31.9123 49.9593 32.0938 49.9593 32.2969C49.9593 32.5095 49.9169 32.7018 49.8321 32.8738C49.7473 33.0458 49.626 33.1927 49.4682 33.3145C49.3104 33.4363 49.1207 33.5307 48.8993 33.5976C48.6802 33.6621 48.4353 33.6943 48.1644 33.6943C47.9264 33.6943 47.6921 33.6609 47.4612 33.594C47.2327 33.5271 47.0242 33.4268 46.8358 33.293C46.6497 33.1592 46.5001 32.9944 46.3871 32.7985C46.2763 32.6003 46.221 32.3709 46.221 32.1106H46.8994C46.8994 32.2897 46.9336 32.4438 47.0019 32.5728C47.0702 32.6994 47.1632 32.8045 47.281 32.8881C47.4011 32.9717 47.5366 33.0338 47.6874 33.0744C47.8405 33.1127 47.9995 33.1318 48.1644 33.1318C48.4023 33.1318 48.6037 33.0983 48.7686 33.0314C48.9335 32.9646 49.0583 32.869 49.1431 32.7448C49.2303 32.6206 49.2739 32.4737 49.2739 32.3041Z" fill="white"/>
<path d="M53.014 32.0461L54.0352 28.4056H54.5299L54.2437 29.821L53.1448 33.6227H52.6536L53.014 32.0461ZM51.9576 28.4056L52.7702 31.9744L53.014 33.6227H52.5264L51.2791 28.4056H51.9576ZM55.8514 31.9708L56.6464 28.4056H57.3283L56.0846 33.6227H55.597L55.8514 31.9708ZM54.6041 28.4056L55.597 32.0461L55.9574 33.6227H55.4662L54.4062 29.821L54.1165 28.4056H54.6041Z" fill="white"/>
<path d="M60.6657 28.8678L58.9626 33.6227H58.2665L60.2276 28.4056H60.6763L60.6657 28.8678ZM62.0932 33.6227L60.3866 28.8678L60.376 28.4056H60.8247L62.7928 33.6227H62.0932ZM62.0049 31.6913V32.2575H59.1146V31.6913H62.0049Z" fill="white"/>
</svg>
