<svg width="612" height="576" viewBox="0 0 612 576" fill="none" xmlns="http://www.w3.org/2000/svg">
<path d="M599.354 288C663.53 433.468 470.518 576 311.58 576C152.641 576 -74.3537 448.294 23.8051 288C106.856 152.378 152.653 0 311.58 0C470.507 0 535.167 142.498 599.354 288V288Z" fill="#E3F8FD"/>
<path d="M534.3 457.31H76.8301V502.18H534.3V457.31Z" fill="#04877D"/>
<path d="M534.3 457.31H76.83L73 448.18H538.41L534.3 457.31Z" fill="#F59421"/>
<path d="M531.93 247.36H78.4697L85.8597 255.4H525.14L531.93 247.36Z" fill="#F59421"/>
<path d="M85.8594 255.4L103.099 274.17V448.18H508.579V275.02L525.139 255.4H85.8594Z" fill="#03AEA9"/>
<path d="M415.98 233.68H194.92H97.0801V247.36H194.65H416.21H514.6V233.68H415.98Z" fill="#FEC110"/>
<path d="M305.43 138.82C307.79 138.89 310.18 139.06 312.59 139.32C312.6 139.15 312.62 138.97 312.62 138.8C312.62 135.37 309.84 132.6 306.42 132.6C303 132.6 300.22 135.38 300.22 138.8C300.22 138.84 300.22 138.87 300.22 138.91C301.99 138.81 303.73 138.77 305.43 138.82Z" fill="#023353"/>
<path d="M312.59 139.32C310.18 139.06 307.79 138.89 305.43 138.82C303.74 138.77 302 138.8 300.22 138.91C260.04 141.24 200.6 182.08 194.92 233.67H415.98C410.93 182.71 358.35 144.23 312.59 139.32V139.32Z" fill="#28B1C3"/>
<path d="M312.62 111.56C312.62 114.99 309.84 117.76 306.42 117.76C303 117.76 300.22 114.98 300.22 111.56C300.22 108.14 303 108 306.42 108C309.84 108 312.62 108.14 312.62 111.56Z" fill="#FDBA11"/>
<g opacity="0.2">
<path d="M310.87 108.53C310.98 108.89 311.04 109.31 311.04 109.8C311.04 113.23 308.26 116 304.84 116C303.43 116 302.14 115.53 301.1 114.74C302.18 116.55 304.16 117.76 306.42 117.76C309.85 117.76 312.62 114.98 312.62 111.56C312.62 109.88 311.95 109 310.87 108.53V108.53Z" fill="#1B2929"/>
</g>
<path d="M307.21 117.76H305.45V132.6H307.21V117.76Z" fill="#023353"/>
<path d="M260.15 290.6H207.07V438.89H260.15V290.6Z" fill="#023351"/>
<path d="M186.09 438.88H124.44V336.92C124.44 319.89 138.24 287.67 155.27 287.67C172.3 287.67 186.1 319.9 186.1 336.92V438.88H186.09Z" fill="#023351"/>
<path d="M490.34 438.88H428.69V336.92C428.69 319.89 442.49 287.67 459.52 287.67C476.55 287.67 490.35 319.9 490.35 336.92V438.88H490.34Z" fill="#023351"/>
<path d="M333.75 290.6H280.67V438.89H333.75V290.6Z" fill="#023351"/>
<path d="M407.35 290.6H354.27V438.89H407.35V290.6Z" fill="#023351"/>
<g opacity="0.2">
<path d="M260.15 301.5V290.6H207.07V438.89H215.28V337.89C215.28 317.8 231.57 301.51 251.66 301.51H260.15V301.5Z" fill="white"/>
<path d="M163.47 298.57C168.09 298.57 172.47 300.95 176.41 304.75C170.89 295.12 163.45 287.67 155.27 287.67C138.24 287.67 124.44 319.9 124.44 336.92V438.88H132.65V347.82C132.65 330.79 146.45 298.57 163.48 298.57H163.47Z" fill="white"/>
<path d="M467.72 298.57C472.34 298.57 476.72 300.95 480.66 304.75C475.14 295.12 467.7 287.67 459.52 287.67C442.5 287.67 428.69 319.9 428.69 336.92V438.88H436.9V347.82C436.9 330.79 450.7 298.57 467.73 298.57H467.72Z" fill="white"/>
<path d="M333.75 301.5V290.6H280.67V438.89H288.88V336.11C288.88 317 304.37 301.51 323.48 301.51H333.75V301.5Z" fill="white"/>
<path d="M407.351 301.5V290.6H354.271V438.89H362.48V329.95C362.48 314.24 375.221 301.5 390.931 301.5H407.361H407.351Z" fill="white"/>
</g>
<g opacity="0.2">
<path d="M205.05 202.66C199.73 212.34 196.12 222.77 194.92 233.67H415.98C414.94 223.15 411.86 213.16 407.25 203.88C391.8 214.36 361.45 227.17 305.45 227.17C254.06 227.17 222.85 214.36 205.05 202.65V202.66Z" fill="#1B2929"/>
</g>
<path opacity="0.2" d="M85.8604 255.4H525.14L517.16 264.86H94.5504L85.8604 255.4Z" fill="#1B2929"/>
<path opacity="0.2" d="M534.3 457.31V502.18H398.08C398.08 502.18 524.04 504.65 534.3 457.31Z" fill="#1B2929"/>
<path opacity="0.2" d="M76.8301 457.31V502.18H213.05C213.05 502.18 87.0901 504.65 76.8301 457.31V457.31Z" fill="#1B2929"/>
<g opacity="0.5">
<path d="M224.62 186.24C229.9 177.08 237.34 169.38 245.48 162.68C267 145.04 297.34 135.84 324.52 144.51C328.27 145.74 331.95 147.28 335.43 149.13C327.64 148.5 320.22 148.04 312.54 148.45C279.61 150.04 250.56 166.74 224.62 186.24V186.24Z" fill="white"/>
</g>
<g clip-path="url(#clip0_613_25)">
<path d="M533.517 310.142V516.858C533.517 519.686 531.203 522 528.374 522H410.104L394.678 413.5L410.104 305H528.374C531.203 305 533.517 307.314 533.517 310.142Z" fill="#FF755C"/>
<path d="M410.104 305V522H373.081C370.253 522 367.938 519.686 367.938 516.858V310.142C367.938 307.314 370.253 305 373.081 305H410.104Z" fill="#FFC0D5"/>
<path d="M379.251 371.591H356.626C353.786 371.591 351.483 369.289 351.483 366.449C351.483 363.609 353.786 361.306 356.626 361.306H379.251C382.091 361.306 384.394 363.609 384.394 366.449C384.393 369.289 382.091 371.591 379.251 371.591Z" fill="#174461"/>
<path d="M379.251 402.958H356.626C353.786 402.958 351.483 400.656 351.483 397.816C351.483 394.976 353.786 392.674 356.626 392.674H379.251C382.091 392.674 384.394 394.976 384.394 397.816C384.394 400.656 382.091 402.958 379.251 402.958Z" fill="#174461"/>
<path d="M379.251 340.224H356.626C353.786 340.224 351.483 337.922 351.483 335.082C351.483 332.241 353.786 329.939 356.626 329.939H379.251C382.091 329.939 384.394 332.241 384.394 335.082C384.394 337.922 382.091 340.224 379.251 340.224Z" fill="#174461"/>
<path d="M379.251 465.693H356.626C353.786 465.693 351.483 463.391 351.483 460.551C351.483 457.711 353.786 455.408 356.626 455.408H379.251C382.091 455.408 384.394 457.711 384.394 460.551C384.393 463.391 382.091 465.693 379.251 465.693Z" fill="#174461"/>
<path d="M379.251 434.326H356.626C353.786 434.326 351.483 432.023 351.483 429.183C351.483 426.343 353.786 424.041 356.626 424.041H379.251C382.091 424.041 384.394 426.343 384.394 429.183C384.393 432.024 382.091 434.326 379.251 434.326Z" fill="#174461"/>
<path d="M379.251 497.06H356.626C353.786 497.06 351.483 494.758 351.483 491.918C351.483 489.078 353.786 486.776 356.626 486.776H379.251C382.091 486.776 384.394 489.078 384.394 491.918C384.394 494.758 382.091 497.06 379.251 497.06Z" fill="#174461"/>
<g clip-path="url(#clip1_613_25)">
<circle cx="470.56" cy="406.56" r="34.5599" fill="#FF9900"/>
<path d="M470.5 372C451.477 372 436 387.476 436 406.5C436 425.523 451.477 441 470.5 441C489.523 441 505 425.523 505 406.5C505 387.476 489.523 372 470.5 372ZM490.31 400.673L468.636 422.347C467.714 423.269 466.489 423.776 465.186 423.776C463.883 423.776 462.658 423.269 461.736 422.347L450.689 411.3C449.768 410.379 449.26 409.154 449.26 407.851C449.26 406.547 449.768 405.322 450.689 404.4C451.611 403.479 452.836 402.971 454.139 402.971C455.442 402.971 456.668 403.479 457.589 404.401L465.186 411.997L483.41 393.772C484.331 392.851 485.556 392.344 486.86 392.344C488.163 392.344 489.388 392.851 490.309 393.772C492.212 395.675 492.212 398.77 490.31 400.673Z" fill="white"/>
</g>
</g>
<defs>
<clipPath id="clip0_613_25">
<rect width="217" height="217" fill="white" transform="translate(334 305)"/>
</clipPath>
<clipPath id="clip1_613_25">
<rect width="69" height="69" fill="white" transform="translate(436 372)"/>
</clipPath>
</defs>
</svg>
