<svg width="612" height="576" viewBox="0 0 612 576" fill="none" xmlns="http://www.w3.org/2000/svg">
<path d="M599.354 288C663.53 433.468 470.518 576 311.58 576C152.641 576 -74.3537 448.294 23.8051 288C106.856 152.378 152.653 0 311.58 0C470.507 0 535.167 142.498 599.354 288V288Z" fill="#E3F8FD"/>
<g clip-path="url(#clip0_613_24)">
<path d="M457.834 119.578V464.422C457.834 469.14 453.974 473.001 449.256 473.001H251.957L226.223 292.001L251.957 111H449.256C453.974 111 457.834 114.86 457.834 119.578Z" fill="#FF755C"/>
<path d="M251.957 111V473H190.195C185.477 473 181.616 469.14 181.616 464.422V119.578C181.616 114.86 185.477 111 190.195 111H251.957Z" fill="#FFC0D5"/>
<path d="M200.489 222.087H162.744C158.007 222.087 154.166 218.247 154.166 213.509C154.166 208.771 158.007 204.93 162.744 204.93H200.489C205.226 204.93 209.067 208.771 209.067 213.509C209.066 218.247 205.225 222.087 200.489 222.087Z" fill="#174461"/>
<path d="M200.489 274.415H162.744C158.007 274.415 154.166 270.574 154.166 265.836C154.166 261.098 158.007 257.258 162.744 257.258H200.489C205.226 257.258 209.067 261.098 209.067 265.836C209.067 270.574 205.225 274.415 200.489 274.415Z" fill="#174461"/>
<path d="M200.489 169.761H162.744C158.007 169.761 154.166 165.92 154.166 161.182C154.166 156.444 158.007 152.604 162.744 152.604H200.489C205.226 152.604 209.067 156.444 209.067 161.182C209.067 165.92 205.225 169.761 200.489 169.761Z" fill="#174461"/>
<path d="M200.489 379.069H162.744C158.007 379.069 154.166 375.228 154.166 370.49C154.166 365.752 158.007 361.912 162.744 361.912H200.489C205.226 361.912 209.067 365.752 209.067 370.49C209.066 375.228 205.225 379.069 200.489 379.069Z" fill="#174461"/>
<path d="M200.489 326.741H162.744C158.007 326.741 154.166 322.901 154.166 318.163C154.166 313.425 158.007 309.584 162.744 309.584H200.489C205.226 309.584 209.067 313.425 209.067 318.163C209.066 322.901 205.225 326.741 200.489 326.741Z" fill="#174461"/>
<path d="M200.489 431.395H162.744C158.007 431.395 154.166 427.555 154.166 422.817C154.166 418.079 158.007 414.239 162.744 414.239H200.489C205.226 414.239 209.067 418.079 209.067 422.817C209.067 427.555 205.225 431.395 200.489 431.395Z" fill="#174461"/>
</g>
<defs>
<clipPath id="clip0_613_24">
<rect width="362" height="362" fill="white" transform="translate(125 111)"/>
</clipPath>
</defs>
</svg>
