<svg width="612" height="576" viewBox="0 0 612 576" fill="none" xmlns="http://www.w3.org/2000/svg">
<path d="M599.354 288C663.53 433.468 470.518 576 311.58 576C152.641 576 -74.3537 448.294 23.8051 288C106.856 152.378 152.653 0 311.58 0C470.507 0 535.167 142.498 599.354 288V288Z" fill="#E3F8FD"/>
<path d="M534.3 457.31H76.8301V502.18H534.3V457.31Z" fill="#04877D"/>
<path d="M534.3 457.31H76.83L73 448.18H538.41L534.3 457.31Z" fill="#F59421"/>
<path d="M531.93 247.36H78.4697L85.8597 255.4H525.14L531.93 247.36Z" fill="#F59421"/>
<path d="M85.8594 255.4L103.099 274.17V448.18H508.579V275.02L525.139 255.4H85.8594Z" fill="#03AEA9"/>
<path d="M415.98 233.68H194.92H97.0801V247.36H194.65H416.21H514.6V233.68H415.98Z" fill="#FEC110"/>
<path d="M305.43 138.82C307.79 138.89 310.18 139.06 312.59 139.32C312.6 139.15 312.62 138.97 312.62 138.8C312.62 135.37 309.84 132.6 306.42 132.6C303 132.6 300.22 135.38 300.22 138.8C300.22 138.84 300.22 138.87 300.22 138.91C301.99 138.81 303.73 138.77 305.43 138.82Z" fill="#023353"/>
<path d="M312.59 139.32C310.18 139.06 307.79 138.89 305.43 138.82C303.74 138.77 302 138.8 300.22 138.91C260.04 141.24 200.6 182.08 194.92 233.67H415.98C410.93 182.71 358.35 144.23 312.59 139.32V139.32Z" fill="#28B1C3"/>
<path d="M312.62 111.56C312.62 114.99 309.84 117.76 306.42 117.76C303 117.76 300.22 114.98 300.22 111.56C300.22 108.14 303 108 306.42 108C309.84 108 312.62 108.14 312.62 111.56Z" fill="#FDBA11"/>
<g opacity="0.2">
<path d="M310.87 108.53C310.98 108.89 311.04 109.31 311.04 109.8C311.04 113.23 308.26 116 304.84 116C303.43 116 302.14 115.53 301.1 114.74C302.18 116.55 304.16 117.76 306.42 117.76C309.85 117.76 312.62 114.98 312.62 111.56C312.62 109.88 311.95 109 310.87 108.53V108.53Z" fill="#1B2929"/>
</g>
<path d="M307.21 117.76H305.45V132.6H307.21V117.76Z" fill="#023353"/>
<path d="M260.15 290.6H207.07V438.89H260.15V290.6Z" fill="#023351"/>
<path d="M186.09 438.88H124.44V336.92C124.44 319.89 138.24 287.67 155.27 287.67C172.3 287.67 186.1 319.9 186.1 336.92V438.88H186.09Z" fill="#023351"/>
<path d="M490.34 438.88H428.69V336.92C428.69 319.89 442.49 287.67 459.52 287.67C476.55 287.67 490.35 319.9 490.35 336.92V438.88H490.34Z" fill="#023351"/>
<path d="M333.75 290.6H280.67V438.89H333.75V290.6Z" fill="#023351"/>
<path d="M407.35 290.6H354.27V438.89H407.35V290.6Z" fill="#023351"/>
<g opacity="0.2">
<path d="M260.15 301.5V290.6H207.07V438.89H215.28V337.89C215.28 317.8 231.57 301.51 251.66 301.51H260.15V301.5Z" fill="white"/>
<path d="M163.47 298.57C168.09 298.57 172.47 300.95 176.41 304.75C170.89 295.12 163.45 287.67 155.27 287.67C138.24 287.67 124.44 319.9 124.44 336.92V438.88H132.65V347.82C132.65 330.79 146.45 298.57 163.48 298.57H163.47Z" fill="white"/>
<path d="M467.72 298.57C472.34 298.57 476.72 300.95 480.66 304.75C475.14 295.12 467.7 287.67 459.52 287.67C442.5 287.67 428.69 319.9 428.69 336.92V438.88H436.9V347.82C436.9 330.79 450.7 298.57 467.73 298.57H467.72Z" fill="white"/>
<path d="M333.75 301.5V290.6H280.67V438.89H288.88V336.11C288.88 317 304.37 301.51 323.48 301.51H333.75V301.5Z" fill="white"/>
<path d="M407.351 301.5V290.6H354.271V438.89H362.48V329.95C362.48 314.24 375.221 301.5 390.931 301.5H407.361H407.351Z" fill="white"/>
</g>
<g opacity="0.2">
<path d="M205.05 202.66C199.73 212.34 196.12 222.77 194.92 233.67H415.98C414.94 223.15 411.86 213.16 407.25 203.88C391.8 214.36 361.45 227.17 305.45 227.17C254.06 227.17 222.85 214.36 205.05 202.65V202.66Z" fill="#1B2929"/>
</g>
<path opacity="0.2" d="M85.8604 255.4H525.14L517.16 264.86H94.5504L85.8604 255.4Z" fill="#1B2929"/>
<path opacity="0.2" d="M534.3 457.31V502.18H398.08C398.08 502.18 524.04 504.65 534.3 457.31Z" fill="#1B2929"/>
<path opacity="0.2" d="M76.8301 457.31V502.18H213.05C213.05 502.18 87.0901 504.65 76.8301 457.31V457.31Z" fill="#1B2929"/>
<g opacity="0.5">
<path d="M224.62 186.24C229.9 177.08 237.34 169.38 245.48 162.68C267 145.04 297.34 135.84 324.52 144.51C328.27 145.74 331.95 147.28 335.43 149.13C327.64 148.5 320.22 148.04 312.54 148.45C279.61 150.04 250.56 166.74 224.62 186.24V186.24Z" fill="white"/>
</g>
<g filter="url(#filter0_d_614_177)">
<rect x="385" y="340" width="169" height="163" rx="8" fill="white"/>
</g>
<path d="M517.834 423.667C517.834 436.751 512.636 449.299 503.384 458.551C494.132 467.802 481.584 473 468.5 473C455.416 473 442.868 467.802 433.616 458.551C424.365 449.299 419.167 436.751 419.167 423.667C419.167 422.031 419.817 420.463 420.973 419.306C422.13 418.15 423.698 417.5 425.334 417.5C426.969 417.5 428.538 418.15 429.694 419.306C430.851 420.463 431.5 422.031 431.5 423.667C431.501 430.853 433.595 437.883 437.526 443.899C441.457 449.915 447.054 454.656 453.635 457.544C460.216 460.431 467.495 461.339 474.583 460.158C481.672 458.976 488.263 455.756 493.551 450.891C498.84 446.025 502.597 439.725 504.364 432.759C506.131 425.794 505.832 418.464 503.502 411.666C501.172 404.868 496.913 398.895 491.245 394.478C485.577 390.06 478.745 387.389 471.584 386.79V395.917C471.596 396.481 471.445 397.037 471.15 397.518C470.855 397.999 470.427 398.385 469.919 398.63C469.486 398.874 468.997 399.001 468.5 399C467.862 398.997 467.24 398.804 466.712 398.445L445.129 383.028C444.728 382.74 444.401 382.36 444.176 381.921C443.95 381.481 443.833 380.994 443.833 380.5C443.833 380.006 443.95 379.519 444.176 379.079C444.401 378.64 444.728 378.26 445.129 377.972L466.712 362.555C467.174 362.224 467.721 362.032 468.289 361.999C468.856 361.966 469.421 362.095 469.919 362.37C470.427 362.615 470.855 363.001 471.15 363.482C471.445 363.963 471.596 364.519 471.584 365.083V374.457C484.112 375.222 495.875 380.741 504.47 389.887C513.066 399.033 517.846 411.115 517.834 423.667Z" fill="#FFA825"/>
<path d="M485.212 415.712L474.667 426.257V442.167C474.667 443.802 474.017 445.371 472.861 446.527C471.704 447.684 470.136 448.333 468.5 448.333C466.865 448.333 465.296 447.684 464.14 446.527C462.983 445.371 462.333 443.802 462.333 442.167V423.667C462.32 423.142 462.404 422.619 462.58 422.125C462.604 421.824 462.688 421.53 462.827 421.262C463.126 420.526 463.566 419.855 464.122 419.288L476.455 406.955C477.616 405.794 479.191 405.141 480.833 405.141C482.476 405.141 484.051 405.794 485.212 406.955C486.373 408.116 487.025 409.691 487.025 411.333C487.025 412.975 486.373 414.55 485.212 415.712V415.712Z" fill="#7F4C00"/>
<defs>
<filter id="filter0_d_614_177" x="381" y="340" width="177" height="171" filterUnits="userSpaceOnUse" color-interpolation-filters="sRGB">
<feFlood flood-opacity="0" result="BackgroundImageFix"/>
<feColorMatrix in="SourceAlpha" type="matrix" values="0 0 0 0 0 0 0 0 0 0 0 0 0 0 0 0 0 0 127 0" result="hardAlpha"/>
<feOffset dy="4"/>
<feGaussianBlur stdDeviation="2"/>
<feComposite in2="hardAlpha" operator="out"/>
<feColorMatrix type="matrix" values="0 0 0 0 0 0 0 0 0 0 0 0 0 0 0 0 0 0 0.25 0"/>
<feBlend mode="normal" in2="BackgroundImageFix" result="effect1_dropShadow_614_177"/>
<feBlend mode="normal" in="SourceGraphic" in2="effect1_dropShadow_614_177" result="shape"/>
</filter>
</defs>
</svg>
