<svg width="543" height="519" viewBox="0 0 543 519" fill="none" xmlns="http://www.w3.org/2000/svg">
<path d="M531.219 263.06C588.099 391.89 417.029 518.12 276.159 518.12C135.289 518.12 -65.9011 405.02 21.0989 263.06C94.7089 142.95 135.299 8 276.159 8C417.019 8 474.329 134.2 531.219 263.06V263.06Z" fill="#E3F8FD"/>
<mask id="mask0_604_519" style="mask-type:alpha" maskUnits="userSpaceOnUse" x="0" y="0" width="543" height="511">
<path d="M531.219 255.06C588.099 383.89 417.029 510.12 276.159 510.12C135.289 510.12 -65.9011 397.02 21.0989 255.06C94.7089 134.95 135.299 0 276.159 0C417.019 0 474.329 126.2 531.219 255.06V255.06Z" fill="#E3F8FD"/>
</mask>
<g mask="url(#mask0_604_519)">
<path d="M494.377 358.188L484.809 339.989L467.213 352.893L485.462 367.036L494.377 358.188Z" fill="#FFC4C6"/>
<path d="M336.558 536.341C336.558 536.341 321.325 635.899 320.621 658.925C320.621 658.925 328.062 669.197 360.656 667.421V678.38C360.656 678.38 389.345 688.988 409.89 678.38C409.89 678.38 433.284 696.63 454.181 674.761C454.181 674.761 468.71 682.57 486.071 661.706L467.655 496.641L405.785 447.457L347.668 465.857L336.575 536.324L336.558 536.341Z" fill="#2B2B2B"/>
<path d="M374.11 481.073C374.11 481.073 397.253 464.399 431.741 478.091C466.228 491.782 436.466 345.117 407.174 336.252C377.881 327.387 368.446 445.329 374.11 481.073V481.073Z" fill="#D1D3D4"/>
<path d="M390.533 441.241C391.036 452.82 390.332 466.226 389.293 478.125C388.723 484.66 388.036 490.743 387.416 495.838C387.114 498.335 386.813 500.614 386.545 502.558C385.958 506.814 382.07 509.797 377.797 509.277L333.439 503.831C328.613 503.245 325.479 498.452 326.87 493.793C327.976 490.106 329.333 485.347 330.758 479.7C332.216 473.969 333.757 467.316 335.215 459.976C335.416 458.954 335.617 457.898 335.819 456.859C339.103 439.481 342.12 390.179 343.879 356.429C344.901 336.973 345.505 322.712 345.505 322.712L390.667 356.245C390.667 356.245 390.181 374.511 390.013 395.559C389.896 411.428 389.93 428.89 390.499 441.274L390.533 441.241Z" fill="#2596B8"/>
<path d="M494.099 345.821C494.099 345.821 492.758 348.955 489.658 352.843C488.15 354.753 486.189 356.848 483.793 358.825C481.061 361.087 477.709 363.199 473.671 364.724C473.671 364.724 452.053 344.631 445.903 329.164C445.417 327.974 445.065 326.767 444.814 325.577C444.596 324.605 444.462 323.65 444.395 322.695C444.395 322.695 444.395 322.645 444.395 322.628C443.976 317.299 445.635 312.221 449.02 308.451C453.947 302.887 462.544 300.055 473.688 303.072C473.688 303.072 474.308 304.831 475.38 307.663C478.966 317.199 487.563 338.9 494.115 345.821H494.099Z" fill="#2596B8"/>
<g style="mix-blend-mode:multiply" opacity="0.59">
<path d="M483.792 359.278C481.06 361.54 477.709 363.652 473.67 365.177C473.67 365.177 452.052 345.084 445.902 329.616C445.416 328.427 445.064 327.22 444.813 326.03C444.629 324.807 444.495 323.835 444.394 323.148C444.394 323.148 444.394 323.098 444.394 323.081C444.361 322.93 444.344 322.779 444.327 322.662C443.741 318.757 440.456 312.373 448.483 309.088C448.651 309.004 448.835 308.954 449.003 308.887C456.828 305.736 463.934 304.211 463.934 304.211L464.822 311.132C464.822 311.132 455.605 339.956 483.809 359.261L483.792 359.278Z" fill="#2596B8"/>
</g>
<path d="M495.975 492.016C453.477 509.026 421.587 504.786 421.587 504.786C421.269 503.814 420.9 502.473 420.531 500.781C419.408 495.737 418.051 487.659 416.61 477.89C413.141 454.328 409.119 420.678 406.119 394.586C403.555 372.114 401.746 355.256 401.746 355.256C401.746 355.256 444.964 297.156 447.813 304.948C448.651 307.228 450.578 318.154 452.891 332.415C458.471 366.584 466.23 419.974 466.23 419.974L480.206 453.792L495.992 492L495.975 492.016Z" fill="#2596B8"/>
<path d="M315.561 395.039L325.414 376.991L304.903 369.5L303.277 392.542L315.561 395.039Z" fill="#FFC4C6"/>
<path d="M351.121 307.563C341.669 331.644 329.855 385.034 329.855 385.034C326.587 385.503 323.487 385.453 320.605 385.068C315.142 384.364 310.416 382.454 306.947 380.644C302.925 378.532 300.562 376.521 300.562 376.521C300.261 368.075 305.942 329.767 310.064 303.172C312.41 288.14 314.27 276.845 314.27 276.845C314.27 276.845 337.128 280.113 347.434 290.419C351.825 294.776 353.936 300.407 351.121 307.563V307.563Z" fill="#2596B8"/>
<g style="mix-blend-mode:multiply" opacity="0.59">
<path d="M351.121 307.563C341.67 331.644 329.855 385.035 329.855 385.035C326.588 385.504 323.487 385.454 320.605 385.068C336.592 341.464 322.901 300.257 322.901 300.257C332.754 285.342 341.217 285.828 347.418 290.436C351.808 294.793 353.92 300.424 351.104 307.58L351.121 307.563Z" fill="#2596B8"/>
</g>
<path d="M473.67 303.541C464.805 316.662 450.628 322.678 450.628 322.678L448.466 309.104L447.796 304.948C447.31 306.389 446.807 307.814 446.288 309.222C430.468 351.686 394.288 387.849 394.288 387.849C387.049 383.777 376.809 372.901 365.867 359.495C364.777 358.138 363.655 356.764 362.565 355.373C362.515 355.322 362.482 355.272 362.448 355.239C360.521 352.792 358.577 350.312 356.616 347.765C353.617 343.877 350.617 339.872 347.651 335.85C347.131 335.146 346.612 334.442 346.109 333.755C336.725 320.919 327.877 308.099 321.023 297.91C312.778 285.71 307.398 277.315 307.398 277.315L326.871 220.455L329.15 213.802L330.206 210.752C321.71 135.677 333.038 142.699 333.038 142.699C333.038 141.894 333.038 141.107 333.105 140.336C334.613 107.474 367.727 97 380.53 97C391.003 97 399.248 99.6645 405.734 103.971C427.016 118.115 429.295 149.838 429.312 162.708C429.312 166.193 429.144 168.305 429.144 168.305C429.345 168.489 429.546 168.69 429.714 168.891C433.468 173.148 431.34 178.912 431.206 179.315C431.206 179.315 449.622 224.896 459.191 239.777C466.648 251.373 471.324 283.616 473 297.29C473.486 301.161 473.72 303.541 473.72 303.541H473.67Z" fill="#2B2B2B"/>
<path d="M306.896 390.28L311.99 390.849C314.906 391.168 317.152 393.531 317.336 396.463L319.029 412.417C319.28 416.171 316.063 419.22 312.326 418.818L301.651 415.802C297.931 415.383 295.484 411.73 296.523 408.127L300.411 394.62C301.232 391.788 303.963 389.961 306.879 390.296L306.896 390.28Z" fill="#FFC4C6"/>
<path d="M312.627 397.62C312.627 397.62 322.162 409.166 325.028 408.11C327.894 407.054 324.039 391.688 311.974 390.85L312.627 397.62V397.62Z" fill="#FFC4C6"/>
<path d="M413.326 169.143C413.795 174.606 405.701 200.513 381.067 202.407C358.813 204.116 345.541 173.315 345.541 173.315C345.541 173.315 345.541 173.315 345.541 173.282C351.004 150.876 356.55 136.431 361.561 127.131C369.689 111.981 376.358 110.457 378.889 110.49C383.547 110.54 388.558 116.59 393.25 124.885C402.919 142.028 412.991 165.422 413.326 169.126V169.143Z" fill="#FFC4C6"/>
<g style="mix-blend-mode:multiply">
<path d="M413.325 169.143C413.325 169.143 399.165 130.415 379.441 130.868C360.035 131.337 345.992 172.025 345.557 173.299C351.02 150.894 356.567 136.448 361.577 127.148C369.705 111.999 376.374 110.474 378.905 110.507C383.564 110.557 388.574 116.607 393.266 124.902C402.936 142.045 413.007 165.439 413.342 169.143H413.325Z" fill="#FFC4C6"/>
</g>
<path d="M393.249 124.919C380.094 122.841 368.564 125.103 361.576 127.164C369.704 112.015 376.373 110.49 378.904 110.524C383.563 110.574 388.573 116.624 393.265 124.919H393.249Z" fill="#2596B8"/>
<path d="M484.714 362.16L488.719 358.959C490.998 357.133 494.266 357.217 496.478 359.144L508.946 369.232C511.778 371.712 511.66 376.136 508.728 378.482L499.059 383.895C496.143 386.224 491.819 385.37 490.009 382.102L483.206 369.802C481.781 367.221 482.418 364.004 484.731 362.16H484.714Z" fill="#FFC4C6"/>
<path d="M493.981 363.3C493.981 363.3 508.878 364.724 510.169 361.959C511.459 359.194 497.868 351.033 488.735 358.976L493.981 363.3Z" fill="#FFC4C6"/>
<path d="M340.042 218.025C339.422 222.65 335.668 225.968 331.663 225.432C327.658 224.896 326.82 220.975 327.44 216.349C328.06 211.724 329.887 208.155 333.909 208.691C337.931 209.227 340.679 213.4 340.059 218.025H340.042Z" fill="#FF6B06"/>
<path d="M338.065 217.757C337.445 222.382 335.082 225.885 331.077 225.348C327.072 224.812 324.894 220.707 325.514 216.081C326.134 211.456 329.301 208.071 333.323 208.607C337.328 209.144 338.685 213.132 338.082 217.757H338.065Z" fill="#FFC201"/>
<g style="mix-blend-mode:screen">
<path d="M337.647 212.177C336.859 211.071 335.686 210.317 334.111 210.099C333.139 209.965 332.217 210.082 331.363 210.367C331.48 210.4 331.597 210.468 331.698 210.535C332.519 211.171 332.301 212.864 331.178 214.305C330.072 215.746 328.497 216.4 327.676 215.763C327.324 215.495 327.156 215.042 327.173 214.489C326.738 215.411 326.453 216.45 326.302 217.573C326.05 219.416 326.252 221.176 326.838 222.65C325.665 220.941 325.196 218.578 325.514 216.081C326.134 211.456 329.302 208.071 333.323 208.607C335.535 208.909 336.943 210.25 337.647 212.177Z" fill="#FFC201"/>
</g>
<g style="mix-blend-mode:screen">
<path d="M332.835 216.482C333.32 216.012 333.516 215.426 333.271 215.173C333.026 214.921 332.434 215.097 331.949 215.567C331.464 216.037 331.269 216.623 331.513 216.875C331.758 217.128 332.35 216.952 332.835 216.482Z" fill="#FFC201"/>
</g>
<g style="mix-blend-mode:screen" opacity="0.48">
<path d="M306.947 380.644C302.925 378.532 300.562 376.521 300.562 376.521C300.261 368.075 305.942 329.767 310.064 303.172C313.767 317.886 318.745 348.67 306.947 380.644Z" fill="#2596B8"/>
</g>
<g style="mix-blend-mode:screen" opacity="0.48">
<path d="M494.097 346.29C494.097 346.29 492.757 349.424 489.656 353.312C469.346 333.939 472.58 315.807 475.345 308.132C478.931 317.668 487.528 339.369 494.08 346.29H494.097Z" fill="#2596B8"/>
</g>
<path d="M185.344 468.545C180.126 502.308 170.184 611.983 170.184 611.983L158.868 611.251L124.629 609.072C122.579 602.938 121.132 528.839 120.473 486.47C120.198 469.259 120.07 457.303 120.07 457.303L185.326 468.527L185.344 468.545Z" fill="#9F134E"/>
<g style="mix-blend-mode:multiply" opacity="0.45">
<path d="M185.344 468.545C180.126 502.308 170.184 611.983 170.184 611.983L158.869 611.251C164.069 591.238 168.06 546.105 170.239 514.814C172.125 487.587 138.563 485.573 120.492 486.47C120.217 469.259 120.089 457.303 120.089 457.303L185.344 468.527V468.545Z" fill="#9F134E"/>
</g>
<path d="M249.941 470.505C249.336 475.906 248.604 483.285 247.798 491.872C243.532 537.371 237.105 617 237.105 617L201.53 616.249L191.46 616.03C188.182 607.552 187.633 467.392 187.633 467.392L249.922 470.505H249.941Z" fill="#9F134E"/>
<g style="mix-blend-mode:multiply" opacity="0.45">
<path d="M249.941 470.505C249.337 475.906 248.605 483.285 247.799 491.872C232.547 491.781 203.178 496.376 198.619 532.428C193.767 570.75 199.022 603.689 201.549 616.268L191.479 616.048C188.201 607.571 187.652 467.41 187.652 467.41L249.941 470.523V470.505Z" fill="#9F134E"/>
</g>
<path d="M297.363 142.743L284.271 161.016L305.529 171.874L310.363 147.101L297.363 142.743Z" fill="#FFC4C6"/>
<path d="M315.782 165.924C312.395 174.108 308.294 185.204 303.936 197.801C291.339 234.146 276.636 282.941 270.887 310.259C268.671 320.732 267.738 338.199 267.5 357.827C267.115 391.737 268.873 432.11 269.99 454.026C270.484 463.584 263.746 471.951 254.317 473.654C199.113 483.578 145.466 475.723 119.356 470.45C109.945 468.546 103.464 459.83 104.306 450.254C104.855 443.901 105.551 436.083 106.338 427.386C109.634 391.096 114.504 339.866 117.617 320.183C122.652 288.306 106.009 260.328 97.4946 241.341C92.1665 229.477 81.3821 200.236 74.0765 179.967C69.6639 167.81 66.5146 158.875 66.5146 158.875C80.4666 144.557 95.1692 146.534 95.1692 146.534L162.768 246.486L169.488 256.41C171.429 256.538 173.498 253.7 173.498 253.7L173.992 249.617C174.157 248.061 175.146 246.706 176.574 246.102C197.868 237.185 215.39 242.696 221.89 245.443C223.538 246.139 224.6 247.75 224.563 249.544L224.49 254.469C227.987 251.43 231.393 247.86 234.707 243.886C261.805 211.368 281.781 152.649 281.781 152.649C307.25 150.324 315.855 165.887 315.855 165.887L315.782 165.924Z" fill="#FDB840"/>
<g style="mix-blend-mode:screen" opacity="0.55">
<path d="M315.782 165.924C312.395 174.109 308.294 185.204 303.936 197.801C299.926 201.207 294.818 204.008 288.446 205.217C266.255 209.336 254.701 249.087 234.652 243.923C261.751 211.405 281.726 152.686 281.726 152.686C307.195 150.361 315.801 165.924 315.801 165.924H315.782Z" fill="#FDB840"/>
</g>
<g style="mix-blend-mode:screen" opacity="0.55">
<path d="M162.731 246.486C124.519 242.696 129.591 197.911 104.214 192.693C91.9463 190.166 81.5647 184.838 74.0394 179.967C69.6268 167.81 66.4775 158.875 66.4775 158.875C80.4295 144.557 95.1321 146.534 95.1321 146.534L162.731 246.486V246.486Z" fill="#FDB840"/>
</g>
<path d="M224.509 249.563L224.435 254.488C189.775 261.647 173.461 253.719 173.461 253.719L173.937 249.617C174.121 248.079 175.091 246.706 176.519 246.12C197.795 237.204 215.336 242.696 221.836 245.461C223.483 246.157 224.527 247.787 224.509 249.563V249.563Z" fill="#2B2B2B"/>
<path d="M218.32 246.944C218.32 249.122 209.879 249.361 199.461 249.361C189.043 249.361 180.583 249.122 180.583 246.944C180.583 245.863 182.689 244.746 186.095 243.904C189.519 243.062 194.224 242.494 199.442 242.494C205.411 242.494 210.758 243.245 214.2 244.307C216.763 245.076 218.301 246.028 218.301 246.962L218.32 246.944Z" fill="#161616"/>
<path d="M218.32 246.944C218.32 249.123 209.879 249.361 199.461 249.361C189.043 249.361 180.583 249.123 180.583 246.944C180.583 245.864 182.689 244.747 186.095 243.905C189.995 245.534 201.896 249.581 214.2 244.289C216.763 245.058 218.301 246.01 218.301 246.944H218.32Z" fill="#0A0A0A"/>
<path d="M195.396 255.256H203.325V300.28H201.658C198.198 300.28 195.396 297.478 195.396 294.018V255.256V255.256Z" fill="#2B2B2B"/>
<path d="M306.554 147.687L301.372 145.545C298.425 144.318 296.777 141.151 297.454 138.038L300.53 120.79C301.409 116.781 305.712 114.547 309.502 116.121L319.774 122.53C323.545 124.104 325.01 128.682 322.831 132.142L314.647 145.142C312.926 147.87 309.502 148.951 306.536 147.724L306.554 147.687Z" fill="#FFC4C6"/>
<path d="M302.764 138.221C302.764 138.221 296.264 123.207 292.95 123.445C289.636 123.683 288.977 140.986 301.391 145.527L302.764 138.221Z" fill="#FFC4C6"/>
<path d="M71.2935 145.032L76.4751 142.89C79.423 141.663 81.0709 138.496 80.3934 135.383L77.3174 118.136C76.4385 114.126 72.1357 111.892 68.3457 113.467L58.0739 119.875C54.3022 121.45 52.8374 126.027 55.0162 129.488L63.2006 142.487C64.9218 145.216 68.3456 146.296 71.3118 145.069L71.2935 145.032Z" fill="#FFC4C6"/>
<path d="M75.084 135.566C75.084 135.566 81.5839 120.552 84.898 120.79C88.212 121.028 88.8711 138.331 76.4572 142.872L75.084 135.566Z" fill="#FFC4C6"/>
<g style="mix-blend-mode:multiply" opacity="0.43">
<path d="M254.317 473.635C199.113 483.559 145.466 475.704 119.356 470.431C109.945 468.527 103.464 459.811 104.306 450.235C104.855 443.882 105.551 436.064 106.338 427.367C141.767 402.118 187.139 481.838 228.317 416.949C245.84 389.338 256.532 364.235 267.5 357.808C267.115 391.718 268.873 432.091 269.99 454.007C270.484 463.565 263.746 471.932 254.317 473.635V473.635Z" fill="#FDB840"/>
</g>
<path d="M179.045 247.53C179.045 247.53 177.69 252.565 203.342 250.917C203.342 250.917 177.599 257.216 179.045 247.53Z" fill="#474747"/>
<path d="M175.658 222.373C179.412 230.466 180.071 239.291 178.862 248.556C191.771 252.419 204.917 252.144 218.338 246.944C217.258 238.943 217.844 230.173 219.473 220.908L175.658 222.354V222.373Z" fill="#FFC4C6"/>
<g style="mix-blend-mode:multiply">
<path d="M175.658 222.373C179.412 230.466 180.071 239.291 178.862 248.556C191.771 252.419 205.723 253.536 218.338 246.944C217.258 238.943 217.844 230.173 219.473 220.908L175.658 222.354V222.373Z" fill="#FFC4C6"/>
</g>
<path d="M241.481 201.463C234.706 222.318 217.221 237.149 196.714 237.149C180.693 237.149 167.492 226.529 159.582 211.405C134.113 211.002 130.195 186.449 140.522 181.927C144.953 179.968 148.706 180.059 151.599 180.81C151.562 179.894 151.544 178.979 151.544 178.045C151.544 147.761 170.33 140.107 196.714 140.107C219.564 140.107 238.68 149.061 243.367 171.142C246.26 169.403 250.636 168.011 256.587 169.769C267.426 172.918 266.675 197.783 241.463 201.463H241.481Z" fill="#FFC4C6"/>
<g style="mix-blend-mode:multiply">
<path d="M243.368 171.142C162.037 164.276 151.582 180.81 151.582 180.81C151.545 179.894 151.527 178.979 151.527 178.045C151.527 147.761 170.313 140.107 196.697 140.107C219.547 140.107 238.662 149.061 243.35 171.142H243.368Z" fill="#FFC4C6"/>
</g>
<path d="M231.338 167.407C231.338 167.407 236.611 176.763 236.172 185.588C236.117 186.76 237.636 187.218 238.222 186.211C240.017 183.08 242.177 177.917 243.239 170.172C243.239 170.172 235.293 161.017 231.356 167.407H231.338Z" fill="#231F20"/>
<path d="M161.908 169.989C161.908 169.989 156.946 180.553 157.038 189.067C157.038 190.093 155.738 190.55 155.152 189.69C153.248 186.852 150.721 181.487 150.336 172.497L161.908 169.989Z" fill="#231F20"/>
<path d="M243.239 170.172C243.239 170.172 210.282 158.216 150.318 172.516C150.318 172.516 147.461 155.103 159.637 139.668C170.312 126.156 225.058 108.706 239.669 149.207C241.738 154.957 243.001 161.896 243.221 170.172H243.239Z" fill="#E6E7E8"/>
<g style="mix-blend-mode:multiply">
<path d="M243.239 170.172C243.239 170.172 210.281 158.215 150.317 172.515C167.84 154.975 200.101 164.038 219.436 153.565C228.005 148.932 234.78 148.365 239.668 149.207C241.737 154.956 243.001 161.896 243.221 170.172H243.239Z" fill="#E6E7E8"/>
</g>
<g style="mix-blend-mode:screen" opacity="0.42">
<path d="M237.032 143.256C219.4 110.537 169.745 126.869 159.638 139.649C149.805 152.082 149.769 165.796 150.117 170.666C151.49 164.532 154.255 157.446 159.583 150.69C162.421 147.101 168.042 143.275 175.182 140.125C175.164 140.492 175.182 140.858 175.292 141.224C176.208 144.41 181.829 145.508 187.834 143.641C193.84 141.792 197.978 137.69 197.063 134.504C197.008 134.321 196.934 134.138 196.861 133.973C210.941 132.014 226.028 133.864 237.032 143.256V143.256Z" fill="#E6E7E8"/>
</g>
<g style="mix-blend-mode:screen" opacity="0.42">
<path d="M192.431 151.706C195.826 150.569 198.096 148.21 197.502 146.436C196.908 144.662 193.675 144.145 190.281 145.282C186.886 146.418 184.616 148.777 185.21 150.551C185.804 152.325 189.037 152.842 192.431 151.706Z" fill="#E6E7E8"/>
</g>
<g style="mix-blend-mode:multiply">
<path d="M152.551 192.399C152.954 191.868 152.917 191.118 152.405 190.678C151.251 189.635 148.743 188.133 144.037 188.646C137.574 189.342 140.394 202.213 150.958 203.111C152.002 203.202 152.698 202.03 152.112 201.151C150.83 199.266 149.75 196.135 152.533 192.399H152.551Z" fill="#FFC4C6"/>
</g>
<g style="mix-blend-mode:multiply">
<path d="M244.814 180.791C244.411 180.26 244.447 179.51 244.96 179.07C246.114 178.026 248.622 176.525 253.328 177.038C259.791 177.734 256.971 190.605 246.406 191.502C245.363 191.594 244.667 190.422 245.253 189.543C246.535 187.657 247.615 184.526 244.832 180.791H244.814Z" fill="#FFC4C6"/>
</g>
</g>
<path d="M70.2935 149.074L75.4751 146.932C78.423 145.705 80.0709 142.537 79.3934 139.425L76.3174 122.177C75.4385 118.167 71.1357 115.933 67.3457 117.508L57.0739 123.916C53.3022 125.491 51.8374 130.068 54.0162 133.529L62.2006 146.529C63.9218 149.257 67.3456 150.337 70.3118 149.11L70.2935 149.074Z" fill="#FFC4C6"/>
<path d="M74.084 139.608C74.084 139.608 80.5839 124.594 83.898 124.832C87.212 125.07 87.8711 142.372 75.4572 146.913L74.084 139.608Z" fill="#FFC4C6"/>
</svg>
